<svg id="visual" viewBox="0 0 960 540" width="960" height="540" xmlns="http://www.w3.org/2000/svg" xmlns:xlink="http://www.w3.org/1999/xlink" version="1.1"><g stroke-width="1" stroke-linejoin="bevel"><path d="M474.7 328L365.7 346L478.3 333Z" fill="#f4f4f4" stroke="#f4f4f4"></path><path d="M365.7 346L383.7 498L478.3 333Z" fill="#f5f5f5" stroke="#f5f5f5"></path><path d="M474.7 328L354 295L365.7 346Z" fill="#f6f6f6" stroke="#f6f6f6"></path><path d="M365.7 346L325 399L336 400Z" fill="#f2f2f2" stroke="#f2f2f2"></path><path d="M354 295L325 399L365.7 346Z" fill="#f2f2f2" stroke="#f2f2f2"></path><path d="M456.7 540L551.3 361L478.3 333Z" fill="#f5f5f5" stroke="#f5f5f5"></path><path d="M478.3 333L551.3 361L474.7 328Z" fill="#f4f4f4" stroke="#f4f4f4"></path><path d="M325 399L383.7 498L336 400Z" fill="#f6f6f6" stroke="#f6f6f6"></path><path d="M336 400L383.7 498L365.7 346Z" fill="#f4f4f4" stroke="#f4f4f4"></path><path d="M474.7 328L372.7 225L354 295Z" fill="#f6f6f6" stroke="#f6f6f6"></path><path d="M354 295L214.3 295L325 399Z" fill="#f6f6f6" stroke="#f6f6f6"></path><path d="M497.3 197L372.7 225L474.7 328Z" fill="#f3f3f3" stroke="#f3f3f3"></path><path d="M383.7 498L456.7 540L478.3 333Z" fill="#f6f6f6" stroke="#f6f6f6"></path><path d="M551.3 361L497.3 197L474.7 328Z" fill="#f4f4f4" stroke="#f4f4f4"></path><path d="M456.7 540L583.3 499L551.3 361Z" fill="#f2f2f2" stroke="#f2f2f2"></path><path d="M583.3 499L631 372L551.3 361Z" fill="#f3f3f3" stroke="#f3f3f3"></path><path d="M551.3 361L662 254L497.3 197Z" fill="#f2f2f2" stroke="#f2f2f2"></path><path d="M375 149L259.3 222L372.7 225Z" fill="#f4f4f4" stroke="#f4f4f4"></path><path d="M372.7 225L259.3 222L354 295Z" fill="#f4f4f4" stroke="#f4f4f4"></path><path d="M456.7 540L564.3 540L583.3 499Z" fill="#f5f5f5" stroke="#f5f5f5"></path><path d="M259.3 222L214.3 295L354 295Z" fill="#f3f3f3" stroke="#f3f3f3"></path><path d="M325 399L265 540L383.7 498Z" fill="#f3f3f3" stroke="#f3f3f3"></path><path d="M497.3 197L375 149L372.7 225Z" fill="#f3f3f3" stroke="#f3f3f3"></path><path d="M259.3 222L238.3 227L214.3 295Z" fill="#f3f3f3" stroke="#f3f3f3"></path><path d="M143.7 116L238.3 227L259.3 222Z" fill="#f2f2f2" stroke="#f2f2f2"></path><path d="M242.3 540L265 540L325 399Z" fill="#f4f4f4" stroke="#f4f4f4"></path><path d="M383.7 498L265 540L456.7 540Z" fill="#f4f4f4" stroke="#f4f4f4"></path><path d="M162.3 504L242.3 540L325 399Z" fill="#f4f4f4" stroke="#f4f4f4"></path><path d="M654 540L672 457L583.3 499Z" fill="#f4f4f4" stroke="#f4f4f4"></path><path d="M583.3 499L672 457L631 372Z" fill="#f2f2f2" stroke="#f2f2f2"></path><path d="M739.7 406L662 254L631 372Z" fill="#f5f5f5" stroke="#f5f5f5"></path><path d="M631 372L662 254L551.3 361Z" fill="#f5f5f5" stroke="#f5f5f5"></path><path d="M474.7 87L385 89L375 149Z" fill="#f4f4f4" stroke="#f4f4f4"></path><path d="M474.7 87L375 149L497.3 197Z" fill="#f5f5f5" stroke="#f5f5f5"></path><path d="M158.3 74L143.7 116L259.3 222Z" fill="#f4f4f4" stroke="#f4f4f4"></path><path d="M625 126L474.7 87L497.3 197Z" fill="#f3f3f3" stroke="#f3f3f3"></path><path d="M564.3 540L654 540L583.3 499Z" fill="#f5f5f5" stroke="#f5f5f5"></path><path d="M214.3 295L162.3 504L325 399Z" fill="#f6f6f6" stroke="#f6f6f6"></path><path d="M162.3 504L167.7 540L242.3 540Z" fill="#f2f2f2" stroke="#f2f2f2"></path><path d="M743.7 248L682.7 189L662 254Z" fill="#f4f4f4" stroke="#f4f4f4"></path><path d="M662 254L625 126L497.3 197Z" fill="#f3f3f3" stroke="#f3f3f3"></path><path d="M682.7 189L625 126L662 254Z" fill="#f2f2f2" stroke="#f2f2f2"></path><path d="M802.7 540L739.7 406L672 457Z" fill="#f2f2f2" stroke="#f2f2f2"></path><path d="M672 457L739.7 406L631 372Z" fill="#f3f3f3" stroke="#f3f3f3"></path><path d="M214.3 295L98.7 459L162.3 504Z" fill="#f4f4f4" stroke="#f4f4f4"></path><path d="M162.3 504L98.7 459L167.7 540Z" fill="#f6f6f6" stroke="#f6f6f6"></path><path d="M52.7 346L98.7 459L214.3 295Z" fill="#f6f6f6" stroke="#f6f6f6"></path><path d="M739.7 406L743.7 248L662 254Z" fill="#f3f3f3" stroke="#f3f3f3"></path><path d="M689 0L598 63L625 126Z" fill="#f6f6f6" stroke="#f6f6f6"></path><path d="M769.7 134L625 126L682.7 189Z" fill="#f4f4f4" stroke="#f4f4f4"></path><path d="M625 126L598 63L474.7 87Z" fill="#f6f6f6" stroke="#f6f6f6"></path><path d="M474.7 87L421.7 0L385 89Z" fill="#f5f5f5" stroke="#f5f5f5"></path><path d="M143.7 116L99.7 229L238.3 227Z" fill="#f6f6f6" stroke="#f6f6f6"></path><path d="M238.3 227L99.7 229L214.3 295Z" fill="#f6f6f6" stroke="#f6f6f6"></path><path d="M802.7 540L792.7 387L739.7 406Z" fill="#f4f4f4" stroke="#f4f4f4"></path><path d="M739.7 406L797.3 337L743.7 248Z" fill="#f6f6f6" stroke="#f6f6f6"></path><path d="M474.3 0L421.7 0L474.7 87Z" fill="#f6f6f6" stroke="#f6f6f6"></path><path d="M158.3 74L259.3 222L375 149Z" fill="#f6f6f6" stroke="#f6f6f6"></path><path d="M421.7 0L381 0L385 89Z" fill="#f5f5f5" stroke="#f5f5f5"></path><path d="M579.3 25L474.3 0L474.7 87Z" fill="#f2f2f2" stroke="#f2f2f2"></path><path d="M99.7 229L52.7 346L214.3 295Z" fill="#f2f2f2" stroke="#f2f2f2"></path><path d="M792.7 387L797.3 337L739.7 406Z" fill="#f3f3f3" stroke="#f3f3f3"></path><path d="M598 63L579.3 25L474.7 87Z" fill="#f4f4f4" stroke="#f4f4f4"></path><path d="M689 0L579.3 25L598 63Z" fill="#f4f4f4" stroke="#f4f4f4"></path><path d="M158.3 74L375 149L385 89Z" fill="#f5f5f5" stroke="#f5f5f5"></path><path d="M99.7 229L0 306L52.7 346Z" fill="#f4f4f4" stroke="#f4f4f4"></path><path d="M960 291L806.3 263L797.3 337Z" fill="#f4f4f4" stroke="#f4f4f4"></path><path d="M797.3 337L806.3 263L743.7 248Z" fill="#f4f4f4" stroke="#f4f4f4"></path><path d="M743.7 248L769.7 134L682.7 189Z" fill="#f2f2f2" stroke="#f2f2f2"></path><path d="M197.3 0L158.3 74L385 89Z" fill="#f5f5f5" stroke="#f5f5f5"></path><path d="M143.7 116L93.7 140L99.7 229Z" fill="#f6f6f6" stroke="#f6f6f6"></path><path d="M158.3 74L93.7 140L143.7 116Z" fill="#f6f6f6" stroke="#f6f6f6"></path><path d="M654 540L802.7 540L672 457Z" fill="#f6f6f6" stroke="#f6f6f6"></path><path d="M792.7 387L891.3 435L797.3 337Z" fill="#f4f4f4" stroke="#f4f4f4"></path><path d="M806.3 263L769.7 134L743.7 248Z" fill="#f2f2f2" stroke="#f2f2f2"></path><path d="M0 234L0 306L99.7 229Z" fill="#f4f4f4" stroke="#f4f4f4"></path><path d="M52.7 346L0 491L98.7 459Z" fill="#f3f3f3" stroke="#f3f3f3"></path><path d="M381 0L197.3 0L385 89Z" fill="#f6f6f6" stroke="#f6f6f6"></path><path d="M40.7 0L0 50L93.7 140Z" fill="#f4f4f4" stroke="#f4f4f4"></path><path d="M0 306L0 491L52.7 346Z" fill="#f4f4f4" stroke="#f4f4f4"></path><path d="M98.7 459L0 540L167.7 540Z" fill="#f2f2f2" stroke="#f2f2f2"></path><path d="M0 226L0 234L99.7 229Z" fill="#f6f6f6" stroke="#f6f6f6"></path><path d="M0 226L99.7 229L93.7 140Z" fill="#f6f6f6" stroke="#f6f6f6"></path><path d="M0 50L0 226L93.7 140Z" fill="#f3f3f3" stroke="#f3f3f3"></path><path d="M769.7 134L689 0L625 126Z" fill="#f4f4f4" stroke="#f4f4f4"></path><path d="M579.3 25L689 0L474.3 0Z" fill="#f5f5f5" stroke="#f5f5f5"></path><path d="M0 491L0 540L98.7 459Z" fill="#f2f2f2" stroke="#f2f2f2"></path><path d="M802.7 540L891.3 435L792.7 387Z" fill="#f2f2f2" stroke="#f2f2f2"></path><path d="M806.3 263L868.3 125L769.7 134Z" fill="#f3f3f3" stroke="#f3f3f3"></path><path d="M803.3 0L733.7 0L769.7 134Z" fill="#f2f2f2" stroke="#f2f2f2"></path><path d="M769.7 134L733.7 0L689 0Z" fill="#f4f4f4" stroke="#f4f4f4"></path><path d="M802.7 540L894.3 540L891.3 435Z" fill="#f5f5f5" stroke="#f5f5f5"></path><path d="M900.3 132L868.3 125L806.3 263Z" fill="#f5f5f5" stroke="#f5f5f5"></path><path d="M868.3 125L803.3 0L769.7 134Z" fill="#f5f5f5" stroke="#f5f5f5"></path><path d="M960 241L900.3 132L806.3 263Z" fill="#f4f4f4" stroke="#f4f4f4"></path><path d="M868.3 125L960 0L803.3 0Z" fill="#f5f5f5" stroke="#f5f5f5"></path><path d="M960 393L797.3 337L891.3 435Z" fill="#f3f3f3" stroke="#f3f3f3"></path><path d="M40.7 0L93.7 140L158.3 74Z" fill="#f3f3f3" stroke="#f3f3f3"></path><path d="M197.3 0L40.7 0L158.3 74Z" fill="#f2f2f2" stroke="#f2f2f2"></path><path d="M960 408L960 393L891.3 435Z" fill="#f6f6f6" stroke="#f6f6f6"></path><path d="M960 540L960 408L891.3 435Z" fill="#f4f4f4" stroke="#f4f4f4"></path><path d="M960 393L960 291L797.3 337Z" fill="#f5f5f5" stroke="#f5f5f5"></path><path d="M960 291L960 241L806.3 263Z" fill="#f6f6f6" stroke="#f6f6f6"></path><path d="M894.3 540L960 540L891.3 435Z" fill="#f2f2f2" stroke="#f2f2f2"></path><path d="M40.7 0L0 0L0 50Z" fill="#f3f3f3" stroke="#f3f3f3"></path><path d="M960 241L960 123L900.3 132Z" fill="#f6f6f6" stroke="#f6f6f6"></path><path d="M900.3 132L960 0L868.3 125Z" fill="#f2f2f2" stroke="#f2f2f2"></path><path d="M960 123L960 0L900.3 132Z" fill="#f2f2f2" stroke="#f2f2f2"></path></g></svg>